ISO-10303-21;
HEADER;
FILE_DESCRIPTION(('3DEXPERIENCE STEP','CAx-IF Rec.Pracs.--- Model Styling and Organization---1.5--- 2016-08-15','CAx-IF Rec.Pracs.---Supplemental Geometry---1.0---2011-11-01','CAx-IF Rec.Pracs.--- Composite Materials ---3.4---2017-06-13','CAx-IF Rec.Pracs.---Tessellated 3D Geometry---1.0---2015-12-17'),'2;1');

FILE_NAME('\\\\?\\C:\\Users\\hhoechter\\OneDrive\\Desktop\\geometries\\atmospheric_reentry_models_r400.stp','2025-07-10T13:04:54+00:00',('none'),('none'),'3DEXPERIENCE Platform3DEXPERIENCE R2025x HotFix 3.3','3DEXPERIENCE Platform STEP AP242 v3','none');

FILE_SCHEMA(('AP242_MANAGED_MODEL_BASED_3D_ENGINEERING_MIM_LF  {1 0 10303 442 1 1 4}'));

ENDSEC;
DATA;
#16=PRODUCT('atmospheric_reentry_model_r400','atmospheric_reentry_model_r400','',(#2)) ;
#2=PRODUCT_CONTEXT(' ',#1,'mechanical') ;
#1=APPLICATION_CONTEXT('managed model based 3d engineering') ;
#18=PRODUCT_DEFINITION('atmospheric_reentry_model_r400',' ',#17,#3) ;
#3=PRODUCT_DEFINITION_CONTEXT('part definition',#1,' ') ;
#19=PRODUCT_DEFINITION_SHAPE(' ',' ',#18) ;
#298=MECHANICAL_DESIGN_GEOMETRIC_PRESENTATION_REPRESENTATION(' ',(#104),#12) ;
#299=MECHANICAL_DESIGN_GEOMETRIC_PRESENTATION_REPRESENTATION(' ',(#115),#12) ;
#300=MECHANICAL_DESIGN_GEOMETRIC_PRESENTATION_REPRESENTATION(' ',(#26,#32,#37,#42,#47,#52,#57,#62,#67,#72,#77,#82,#87,#92),#12) ;
#5=PRODUCT_CATEGORY('part','specification') ;
#13=SHAPE_REPRESENTATION(' ',(#15,#27,#107),#12) ;
#14=CARTESIAN_POINT('',(0.,0.,0.)) ;
#21=CARTESIAN_POINT('Point.2',(500.,519.120683697,22.6652985335)) ;
#28=CARTESIAN_POINT('Point.7',(500.,519.120683697,-22.6652985335)) ;
#33=CARTESIAN_POINT('Point.6',(200.,346.080455798,-15.1101990224)) ;
#38=CARTESIAN_POINT('Point.1',(200.,346.080455798,15.1101990224)) ;
#43=CARTESIAN_POINT('Point.0',(-5.68434188608E-14,1.132029312E-13,4.9425467162E-15)) ;
#48=CARTESIAN_POINT('Point.4',(1.70530256582E-13,692.160911596,30.2203980447)) ;
#53=CARTESIAN_POINT('Point.5',(300.,865.201139496,37.7754975559)) ;
#58=CARTESIAN_POINT('Point.9',(300.,865.201139496,-37.7754975559)) ;
#63=CARTESIAN_POINT('Point.8',(1.70530256582E-13,692.160911596,-30.2203980447)) ;
#68=CARTESIAN_POINT('Point.3',(-400.,4.0387247653E-13,1.76334531401E-14)) ;
#73=CARTESIAN_POINT('Point.10',(53.5898384862,199.809644316,8.72387747307)) ;
#78=CARTESIAN_POINT('Point.12',(53.5898384862,199.809644316,-8.72387747307)) ;
#83=CARTESIAN_POINT('Point.13',(-292.820323028,399.619288633,-17.4477549461)) ;
#88=CARTESIAN_POINT('Point.11',(-292.820323028,399.619288633,17.4477549461)) ;
#93=CARTESIAN_POINT('Axis2P3D Location',(0.,0.,0.)) ;
#117=CARTESIAN_POINT('Axis2P3D Location',(400.,0.,0.)) ;
#122=CARTESIAN_POINT('Axis2P3D Location',(400.,0.,0.)) ;
#126=CARTESIAN_POINT('Vertex',(-5.68434188608E-14,1.132029312E-13,4.9425467162E-15)) ;
#128=CARTESIAN_POINT('Vertex',(200.,346.080455798,-15.1101990224)) ;
#131=CARTESIAN_POINT('Axis2P3D Location',(200.,0.,0.)) ;
#135=CARTESIAN_POINT('Vertex',(200.,346.080455798,15.1101990224)) ;
#138=CARTESIAN_POINT('Axis2P3D Location',(400.,0.,0.)) ;
#149=CARTESIAN_POINT('Axis2P3D Location',(200.,0.,0.)) ;
#154=CARTESIAN_POINT('Line Origine',(350.,432.600569748,-18.8877487779)) ;
#158=CARTESIAN_POINT('Vertex',(500.,519.120683697,-22.6652985335)) ;
#161=CARTESIAN_POINT('Axis2P3D Location',(500.,0.,0.)) ;
#165=CARTESIAN_POINT('Vertex',(500.,519.120683697,22.6652985335)) ;
#168=CARTESIAN_POINT('Line Origine',(350.,432.600569748,18.8877487779)) ;
#180=CARTESIAN_POINT('Axis2P3D Location',(500.,0.,0.)) ;
#185=CARTESIAN_POINT('Line Origine',(400.,692.160911596,-30.2203980447)) ;
#189=CARTESIAN_POINT('Vertex',(300.,865.201139496,-37.7754975559)) ;
#192=CARTESIAN_POINT('Axis2P3D Location',(300.,0.,0.)) ;
#196=CARTESIAN_POINT('Vertex',(300.,865.201139496,37.7754975559)) ;
#199=CARTESIAN_POINT('Line Origine',(400.,692.160911596,30.2203980447)) ;
#211=CARTESIAN_POINT('Axis2P3D Location',(1.70530256582E-13,0.,0.)) ;
#216=CARTESIAN_POINT('Line Origine',(150.,778.681025546,-33.9979478003)) ;
#220=CARTESIAN_POINT('Vertex',(1.70530256582E-13,692.160911596,-30.2203980447)) ;
#223=CARTESIAN_POINT('Axis2P3D Location',(1.70530256582E-13,0.,0.)) ;
#227=CARTESIAN_POINT('Vertex',(1.70530256582E-13,692.160911596,30.2203980447)) ;
#230=CARTESIAN_POINT('Line Origine',(150.,778.681025546,33.9979478003)) ;
#242=CARTESIAN_POINT('Axis2P3D Location',(400.,0.,0.)) ;
#247=CARTESIAN_POINT('Axis2P3D Location',(400.,0.,0.)) ;
#251=CARTESIAN_POINT('Vertex',(-400.,4.0387247653E-13,1.76334531401E-14)) ;
#254=CARTESIAN_POINT('Axis2P3D Location',(400.,0.,0.)) ;
#265=CARTESIAN_POINT('Axis2P3D Location',(0.,0.,0.)) ;
#270=CARTESIAN_POINT('Line Origine',(-200.,0.,0.)) ;
#284=CARTESIAN_POINT('Axis2P3D Location',(0.,0.,0.)) ;
#6=PRODUCT_RELATED_PRODUCT_CATEGORY('part',$,(#16)) ;
#11=UNCERTAINTY_MEASURE_WITH_UNIT(LENGTH_MEASURE(0.005),#8,'distance_accuracy_value','CONFUSED CURVE UNCERTAINTY') ;
#26=STYLED_ITEM(' ',(#25),#21) ;
#32=STYLED_ITEM(' ',(#31),#28) ;
#37=STYLED_ITEM(' ',(#36),#33) ;
#42=STYLED_ITEM(' ',(#41),#38) ;
#47=STYLED_ITEM(' ',(#46),#43) ;
#52=STYLED_ITEM(' ',(#51),#48) ;
#57=STYLED_ITEM(' ',(#56),#53) ;
#62=STYLED_ITEM(' ',(#61),#58) ;
#67=STYLED_ITEM(' ',(#66),#63) ;
#72=STYLED_ITEM(' ',(#71),#68) ;
#77=STYLED_ITEM(' ',(#76),#73) ;
#82=STYLED_ITEM(' ',(#81),#78) ;
#87=STYLED_ITEM(' ',(#86),#83) ;
#92=STYLED_ITEM(' ',(#91),#88) ;
#104=STYLED_ITEM(' ',(#103),#97) ;
#115=STYLED_ITEM(' ',(#114),#107) ;
#25=PRESENTATION_STYLE_ASSIGNMENT((#24)) ;
#31=PRESENTATION_STYLE_ASSIGNMENT((#30)) ;
#36=PRESENTATION_STYLE_ASSIGNMENT((#35)) ;
#41=PRESENTATION_STYLE_ASSIGNMENT((#40)) ;
#46=PRESENTATION_STYLE_ASSIGNMENT((#45)) ;
#51=PRESENTATION_STYLE_ASSIGNMENT((#50)) ;
#56=PRESENTATION_STYLE_ASSIGNMENT((#55)) ;
#61=PRESENTATION_STYLE_ASSIGNMENT((#60)) ;
#66=PRESENTATION_STYLE_ASSIGNMENT((#65)) ;
#71=PRESENTATION_STYLE_ASSIGNMENT((#70)) ;
#76=PRESENTATION_STYLE_ASSIGNMENT((#75)) ;
#81=PRESENTATION_STYLE_ASSIGNMENT((#80)) ;
#86=PRESENTATION_STYLE_ASSIGNMENT((#85)) ;
#91=PRESENTATION_STYLE_ASSIGNMENT((#90)) ;
#103=PRESENTATION_STYLE_ASSIGNMENT((#102)) ;
#114=PRESENTATION_STYLE_ASSIGNMENT((#113)) ;
#24=POINT_STYLE(' ',#22,POSITIVE_LENGTH_MEASURE(1.),#23) ;
#30=POINT_STYLE(' ',#29,POSITIVE_LENGTH_MEASURE(1.),#23) ;
#35=POINT_STYLE(' ',#34,POSITIVE_LENGTH_MEASURE(1.),#23) ;
#40=POINT_STYLE(' ',#39,POSITIVE_LENGTH_MEASURE(1.),#23) ;
#45=POINT_STYLE(' ',#44,POSITIVE_LENGTH_MEASURE(1.),#23) ;
#50=POINT_STYLE(' ',#49,POSITIVE_LENGTH_MEASURE(1.),#23) ;
#55=POINT_STYLE(' ',#54,POSITIVE_LENGTH_MEASURE(1.),#23) ;
#60=POINT_STYLE(' ',#59,POSITIVE_LENGTH_MEASURE(1.),#23) ;
#65=POINT_STYLE(' ',#64,POSITIVE_LENGTH_MEASURE(1.),#23) ;
#70=POINT_STYLE(' ',#69,POSITIVE_LENGTH_MEASURE(1.),#23) ;
#75=POINT_STYLE(' ',#74,POSITIVE_LENGTH_MEASURE(1.),#23) ;
#80=POINT_STYLE(' ',#79,POSITIVE_LENGTH_MEASURE(1.),#23) ;
#85=POINT_STYLE(' ',#84,POSITIVE_LENGTH_MEASURE(1.),#23) ;
#90=POINT_STYLE(' ',#89,POSITIVE_LENGTH_MEASURE(1.),#23) ;
#22=PRE_DEFINED_MARKER('X') ;
#29=PRE_DEFINED_MARKER('X') ;
#34=PRE_DEFINED_MARKER('X') ;
#39=PRE_DEFINED_MARKER('X') ;
#44=PRE_DEFINED_MARKER('X') ;
#49=PRE_DEFINED_MARKER('X') ;
#54=PRE_DEFINED_MARKER('X') ;
#59=PRE_DEFINED_MARKER('X') ;
#64=PRE_DEFINED_MARKER('X') ;
#69=PRE_DEFINED_MARKER('X') ;
#74=PRE_DEFINED_MARKER('X') ;
#79=PRE_DEFINED_MARKER('X') ;
#84=PRE_DEFINED_MARKER('X') ;
#89=PRE_DEFINED_MARKER('X') ;
#102=SURFACE_STYLE_USAGE(.BOTH.,#101) ;
#113=SURFACE_STYLE_USAGE(.BOTH.,#112) ;
#101=SURFACE_SIDE_STYLE(' ',(#100)) ;
#112=SURFACE_SIDE_STYLE(' ',(#111)) ;
#100=SURFACE_STYLE_FILL_AREA(#99) ;
#111=SURFACE_STYLE_FILL_AREA(#110) ;
#99=FILL_AREA_STYLE(' ',(#98)) ;
#110=FILL_AREA_STYLE(' ',(#109)) ;
#98=FILL_AREA_STYLE_COLOUR(' ',#23) ;
#109=FILL_AREA_STYLE_COLOUR(' ',#108) ;
#156=VECTOR('Line Direction',#155,1.) ;
#170=VECTOR('Line Direction',#169,1.) ;
#187=VECTOR('Line Direction',#186,1.) ;
#201=VECTOR('Line Direction',#200,1.) ;
#218=VECTOR('Line Direction',#217,1.) ;
#232=VECTOR('Line Direction',#231,1.) ;
#272=VECTOR('Line Direction',#271,1.) ;
#94=DIRECTION('Axis2P3D Direction',(0.,-0.0436193873653,0.999048221582)) ;
#95=DIRECTION('Axis2P3D XDirection',(1.,0.,0.)) ;
#118=DIRECTION('Axis2P3D Direction',(-1.,0.,-0.)) ;
#119=DIRECTION('Axis2P3D XDirection',(0.,0.999048221582,0.0436193873653)) ;
#123=DIRECTION('Axis2P3D Direction',(-0.,0.0436193873653,0.999048221582)) ;
#132=DIRECTION('Axis2P3D Direction',(-1.,0.,-0.)) ;
#139=DIRECTION('Axis2P3D Direction',(0.,-0.0436193873653,0.999048221582)) ;
#150=DIRECTION('Axis2P3D Direction',(1.,0.,0.)) ;
#151=DIRECTION('Axis2P3D XDirection',(0.,0.999048221582,-0.0436193873653)) ;
#155=DIRECTION('Vector Direction',(0.866025403784,0.499524110791,-0.0218096936827)) ;
#162=DIRECTION('Axis2P3D Direction',(1.,0.,0.)) ;
#169=DIRECTION('Vector Direction',(0.866025403784,0.499524110791,0.0218096936827)) ;
#181=DIRECTION('Axis2P3D Direction',(-1.,-0.,-0.)) ;
#182=DIRECTION('Axis2P3D XDirection',(0.,0.999048221582,0.0436193873653)) ;
#186=DIRECTION('Vector Direction',(-0.5,0.865201139496,-0.0377754975559)) ;
#193=DIRECTION('Axis2P3D Direction',(-1.,0.,-0.)) ;
#200=DIRECTION('Vector Direction',(-0.5,0.865201139496,0.0377754975559)) ;
#212=DIRECTION('Axis2P3D Direction',(1.,0.,0.)) ;
#213=DIRECTION('Axis2P3D XDirection',(0.,0.999048221582,-0.0436193873653)) ;
#217=DIRECTION('Vector Direction',(0.866025403784,0.499524110791,-0.0218096936827)) ;
#224=DIRECTION('Axis2P3D Direction',(1.,0.,0.)) ;
#231=DIRECTION('Vector Direction',(0.866025403784,0.499524110791,0.0218096936827)) ;
#243=DIRECTION('Axis2P3D Direction',(-1.,0.,-0.)) ;
#244=DIRECTION('Axis2P3D XDirection',(0.,0.999048221582,0.0436193873653)) ;
#248=DIRECTION('Axis2P3D Direction',(-0.,0.0436193873653,0.999048221582)) ;
#255=DIRECTION('Axis2P3D Direction',(0.,-0.0436193873653,0.999048221582)) ;
#266=DIRECTION('Axis2P3D Direction',(0.,-0.0436193873653,0.999048221582)) ;
#267=DIRECTION('Axis2P3D XDirection',(0.,-0.999048221582,-0.0436193873653)) ;
#271=DIRECTION('Vector Direction',(1.,0.,0.)) ;
#285=DIRECTION('Axis2P3D Direction',(-0.,0.0436193873653,0.999048221582)) ;
#286=DIRECTION('Axis2P3D XDirection',(0.,-0.999048221582,0.0436193873653)) ;
#15=AXIS2_PLACEMENT_3D('',#14,$,$) ;
#96=AXIS2_PLACEMENT_3D('Plane Axis2P3D',#93,#94,#95) ;
#120=AXIS2_PLACEMENT_3D('Sphere Axis2P3D',#117,#118,#119) ;
#124=AXIS2_PLACEMENT_3D('Circle Axis2P3D',#122,#123,$) ;
#133=AXIS2_PLACEMENT_3D('Circle Axis2P3D',#131,#132,$) ;
#140=AXIS2_PLACEMENT_3D('Circle Axis2P3D',#138,#139,$) ;
#152=AXIS2_PLACEMENT_3D('Cone Axis2P3D',#149,#150,#151) ;
#163=AXIS2_PLACEMENT_3D('Circle Axis2P3D',#161,#162,$) ;
#183=AXIS2_PLACEMENT_3D('Cone Axis2P3D',#180,#181,#182) ;
#194=AXIS2_PLACEMENT_3D('Circle Axis2P3D',#192,#193,$) ;
#214=AXIS2_PLACEMENT_3D('Cone Axis2P3D',#211,#212,#213) ;
#225=AXIS2_PLACEMENT_3D('Circle Axis2P3D',#223,#224,$) ;
#245=AXIS2_PLACEMENT_3D('Sphere Axis2P3D',#242,#243,#244) ;
#249=AXIS2_PLACEMENT_3D('Circle Axis2P3D',#247,#248,$) ;
#256=AXIS2_PLACEMENT_3D('Circle Axis2P3D',#254,#255,$) ;
#268=AXIS2_PLACEMENT_3D('Plane Axis2P3D',#265,#266,#267) ;
#287=AXIS2_PLACEMENT_3D('Plane Axis2P3D',#284,#285,#286) ;
#157=LINE('Line',#154,#156) ;
#171=LINE('Line',#168,#170) ;
#188=LINE('Line',#185,#187) ;
#202=LINE('Line',#199,#201) ;
#219=LINE('Line',#216,#218) ;
#233=LINE('Line',#230,#232) ;
#273=LINE('Line',#270,#272) ;
#125=CIRCLE('generated circle',#124,400.) ;
#134=CIRCLE('generated circle',#133,346.410161514) ;
#141=CIRCLE('generated circle',#140,400.) ;
#164=CIRCLE('generated circle',#163,519.615242271) ;
#195=CIRCLE('generated circle',#194,866.025403784) ;
#226=CIRCLE('generated circle',#225,692.820323028) ;
#250=CIRCLE('generated circle',#249,800.) ;
#257=CIRCLE('generated circle',#256,800.) ;
#97=PLANE('Plane.1',#96) ;
#269=PLANE('',#268) ;
#288=PLANE('',#287) ;
#153=CONICAL_SURFACE('Cone',#152,346.410161514,0.523598775598) ;
#184=CONICAL_SURFACE('Cone',#183,519.615242271,1.0471975512) ;
#215=CONICAL_SURFACE('Cone',#214,692.820323028,0.523598775598) ;
#121=SPHERICAL_SURFACE('',#120,400.) ;
#246=SPHERICAL_SURFACE('',#245,800.) ;
#130=EDGE_CURVE('',#127,#129,#125,.F.) ;
#137=EDGE_CURVE('',#136,#129,#134,.T.) ;
#142=EDGE_CURVE('',#127,#136,#141,.F.) ;
#160=EDGE_CURVE('',#129,#159,#157,.T.) ;
#167=EDGE_CURVE('',#166,#159,#164,.F.) ;
#172=EDGE_CURVE('',#136,#166,#171,.T.) ;
#191=EDGE_CURVE('',#159,#190,#188,.T.) ;
#198=EDGE_CURVE('',#197,#190,#195,.T.) ;
#203=EDGE_CURVE('',#166,#197,#202,.T.) ;
#222=EDGE_CURVE('',#190,#221,#219,.F.) ;
#229=EDGE_CURVE('',#228,#221,#226,.F.) ;
#234=EDGE_CURVE('',#197,#228,#233,.F.) ;
#253=EDGE_CURVE('',#221,#252,#250,.T.) ;
#258=EDGE_CURVE('',#228,#252,#257,.T.) ;
#274=EDGE_CURVE('',#252,#127,#273,.T.) ;
#116=CLOSED_SHELL('Closed Shell',(#148,#179,#210,#241,#264,#283,#297)) ;
#144=ORIENTED_EDGE('',*,*,#130,.T.) ;
#145=ORIENTED_EDGE('',*,*,#137,.F.) ;
#146=ORIENTED_EDGE('',*,*,#142,.F.) ;
#174=ORIENTED_EDGE('',*,*,#160,.T.) ;
#175=ORIENTED_EDGE('',*,*,#167,.F.) ;
#176=ORIENTED_EDGE('',*,*,#172,.F.) ;
#177=ORIENTED_EDGE('',*,*,#137,.T.) ;
#205=ORIENTED_EDGE('',*,*,#191,.T.) ;
#206=ORIENTED_EDGE('',*,*,#198,.F.) ;
#207=ORIENTED_EDGE('',*,*,#203,.F.) ;
#208=ORIENTED_EDGE('',*,*,#167,.T.) ;
#236=ORIENTED_EDGE('',*,*,#222,.T.) ;
#237=ORIENTED_EDGE('',*,*,#229,.F.) ;
#238=ORIENTED_EDGE('',*,*,#234,.F.) ;
#239=ORIENTED_EDGE('',*,*,#198,.T.) ;
#260=ORIENTED_EDGE('',*,*,#253,.T.) ;
#261=ORIENTED_EDGE('',*,*,#258,.F.) ;
#262=ORIENTED_EDGE('',*,*,#229,.T.) ;
#276=ORIENTED_EDGE('',*,*,#142,.T.) ;
#277=ORIENTED_EDGE('',*,*,#172,.T.) ;
#278=ORIENTED_EDGE('',*,*,#203,.T.) ;
#279=ORIENTED_EDGE('',*,*,#234,.T.) ;
#280=ORIENTED_EDGE('',*,*,#258,.T.) ;
#281=ORIENTED_EDGE('',*,*,#274,.T.) ;
#290=ORIENTED_EDGE('',*,*,#274,.F.) ;
#291=ORIENTED_EDGE('',*,*,#253,.F.) ;
#292=ORIENTED_EDGE('',*,*,#222,.F.) ;
#293=ORIENTED_EDGE('',*,*,#191,.F.) ;
#294=ORIENTED_EDGE('',*,*,#160,.F.) ;
#295=ORIENTED_EDGE('',*,*,#130,.F.) ;
#105=CONSTRUCTIVE_GEOMETRY_REPRESENTATION('supplemental geometry',(#97),#12) ;
#27=GEOMETRIC_SET('NONE',(#21,#28,#33,#38,#43,#48,#53,#58,#63,#68,#73,#78,#83,#88)) ;
#143=EDGE_LOOP('',(#144,#145,#146)) ;
#173=EDGE_LOOP('',(#174,#175,#176,#177)) ;
#204=EDGE_LOOP('',(#205,#206,#207,#208)) ;
#235=EDGE_LOOP('',(#236,#237,#238,#239)) ;
#259=EDGE_LOOP('',(#260,#261,#262)) ;
#275=EDGE_LOOP('',(#276,#277,#278,#279,#280,#281)) ;
#289=EDGE_LOOP('',(#290,#291,#292,#293,#294,#295)) ;
#107=MANIFOLD_SOLID_BREP('PartBody',#116) ;
#127=VERTEX_POINT('',#126) ;
#129=VERTEX_POINT('',#128) ;
#136=VERTEX_POINT('',#135) ;
#159=VERTEX_POINT('',#158) ;
#166=VERTEX_POINT('',#165) ;
#190=VERTEX_POINT('',#189) ;
#197=VERTEX_POINT('',#196) ;
#221=VERTEX_POINT('',#220) ;
#228=VERTEX_POINT('',#227) ;
#252=VERTEX_POINT('',#251) ;
#148=ADVANCED_FACE('PartBody',(#147),#121,.F.) ;
#179=ADVANCED_FACE('PartBody',(#178),#153,.F.) ;
#210=ADVANCED_FACE('PartBody',(#209),#184,.T.) ;
#241=ADVANCED_FACE('PartBody',(#240),#215,.T.) ;
#264=ADVANCED_FACE('PartBody',(#263),#246,.T.) ;
#283=ADVANCED_FACE('PartBody',(#282),#269,.T.) ;
#297=ADVANCED_FACE('PartBody',(#296),#288,.F.) ;
#4=APPLICATION_PROTOCOL_DEFINITION('international standard','ap242_managed_model_based_3d_engineering',2014,#1) ;
#108=COLOUR_RGB('Colour',0.882352941176,0.882352941176,0.882352941176) ;
#106=CONSTRUCTIVE_GEOMETRY_REPRESENTATION_RELATIONSHIP('supplemental geometry','',#13,#105) ;
#23=DRAUGHTING_PRE_DEFINED_COLOUR('black') ;
#147=FACE_OUTER_BOUND('',#143,.T.) ;
#178=FACE_OUTER_BOUND('',#173,.T.) ;
#209=FACE_OUTER_BOUND('',#204,.T.) ;
#240=FACE_OUTER_BOUND('',#235,.T.) ;
#263=FACE_OUTER_BOUND('',#259,.T.) ;
#282=FACE_OUTER_BOUND('',#275,.T.) ;
#296=FACE_OUTER_BOUND('',#289,.T.) ;
#7=PRODUCT_CATEGORY_RELATIONSHIP(' ',' ',#5,#6) ;
#17=PRODUCT_DEFINITION_FORMATION_WITH_SPECIFIED_SOURCE('01',' ',#16,.NOT_KNOWN.) ;
#20=SHAPE_DEFINITION_REPRESENTATION(#19,#13) ;
#8=(LENGTH_UNIT()NAMED_UNIT(*)SI_UNIT(.MILLI.,.METRE.)) ;
#9=(NAMED_UNIT(*)PLANE_ANGLE_UNIT()SI_UNIT($,.RADIAN.)) ;
#10=(NAMED_UNIT(*)SI_UNIT($,.STERADIAN.)SOLID_ANGLE_UNIT()) ;
#12=(GEOMETRIC_REPRESENTATION_CONTEXT(3)GLOBAL_UNCERTAINTY_ASSIGNED_CONTEXT((#11))GLOBAL_UNIT_ASSIGNED_CONTEXT((#8,#9,#10))REPRESENTATION_CONTEXT(' ',' ')) ;
ENDSEC;
END-ISO-10303-21;
